<svg width="255" height="256" viewBox="0 0 255 256" fill="none" xmlns="http://www.w3.org/2000/svg">
<g filter="url(#filter0_d_36_79)">
<rect x="103" y="114.723" width="38.6419" height="39.2453" transform="rotate(-17.6599 103 114.723)" fill="#FFC63D"/>
</g>
<g filter="url(#filter1_di_36_79)">
<path d="M145 91L111 97C115 107.5 123.7 131.93 124.5 132C136 133 151.5 132 159.5 125.5L145 91Z" fill="url(#paint0_radial_36_79)"/>
<path d="M98 104L111 97L124.5 132L113 155L98 104Z" fill="url(#paint1_linear_36_79)"/>
<path d="M158 147L159.5 125.5C154.5 129 144.5 133.5 124.5 132L113 155C113.8 155.4 143.333 150 158 147Z" fill="url(#paint2_linear_36_79)"/>
</g>
<path d="M130.123 108L139.515 111.985L140 113.261L135.395 122L133.023 120.856L136.797 113.618L129 110.343L130.123 108Z" fill="white"/>
<g filter="url(#filter2_d_36_79)">
<path d="M95.4485 52.8768L126.869 83.0262L124.659 87.0714L91.46 55.7649C91.46 55.7649 91.6387 54.1939 92.5135 53.4978C93.3884 52.8016 95.4485 52.8768 95.4485 52.8768Z" fill="url(#paint3_linear_36_79)"/>
<path d="M142.184 75.6977L134.771 79.3102L145.571 89.2911L152.88 85.1894L142.184 75.6977Z" fill="url(#paint4_radial_36_79)"/>
<path d="M128.308 80.1664L134.771 79.3102L145.571 89.2911L144.263 95.1894L128.308 80.1664Z" fill="url(#paint5_linear_36_79)"/>
<path d="M116.174 100.11L128.308 80.1664L144.263 95.1894L130.454 114.465L116.174 100.11Z" fill="url(#paint6_radial_36_79)"/>
<path d="M141.263 107.579L155.665 88.6888L144.263 95.1894L130.454 114.465L141.263 107.579Z" fill="url(#paint7_linear_36_79)"/>
<path d="M139.531 75.2368L142.184 75.6977L134.771 79.3102L128.308 80.1664L139.531 75.2368Z" fill="#3E3E3E"/>
<path d="M155.665 88.6888L152.88 85.1894L145.571 89.2911L144.263 95.1894L155.665 88.6888Z" fill="url(#paint8_linear_36_79)"/>
</g>
<defs>
<filter id="filter0_d_36_79" x="0" y="0" width="254.727" height="255.118" filterUnits="userSpaceOnUse" color-interpolation-filters="sRGB">
<feFlood flood-opacity="0" result="BackgroundImageFix"/>
<feColorMatrix in="SourceAlpha" type="matrix" values="0 0 0 0 0 0 0 0 0 0 0 0 0 0 0 0 0 0 127 0" result="hardAlpha"/>
<feMorphology radius="3" operator="dilate" in="SourceAlpha" result="effect1_dropShadow_36_79"/>
<feOffset/>
<feGaussianBlur stdDeviation="50"/>
<feComposite in2="hardAlpha" operator="out"/>
<feColorMatrix type="matrix" values="0 0 0 0 0.552941 0 0 0 0 0.988235 0 0 0 0 0.054902 0 0 0 1 0"/>
<feBlend mode="normal" in2="BackgroundImageFix" result="effect1_dropShadow_36_79"/>
<feBlend mode="normal" in="SourceGraphic" in2="effect1_dropShadow_36_79" result="shape"/>
</filter>
<filter id="filter1_di_36_79" x="91.8" y="87.8" width="71.9" height="74.421" filterUnits="userSpaceOnUse" color-interpolation-filters="sRGB">
<feFlood flood-opacity="0" result="BackgroundImageFix"/>
<feColorMatrix in="SourceAlpha" type="matrix" values="0 0 0 0 0 0 0 0 0 0 0 0 0 0 0 0 0 0 127 0" result="hardAlpha"/>
<feOffset dx="-1" dy="2"/>
<feGaussianBlur stdDeviation="2.6"/>
<feComposite in2="hardAlpha" operator="out"/>
<feColorMatrix type="matrix" values="0 0 0 0 0 0 0 0 0 0 0 0 0 0 0 0 0 0 0.45 0"/>
<feBlend mode="normal" in2="BackgroundImageFix" result="effect1_dropShadow_36_79"/>
<feBlend mode="normal" in="SourceGraphic" in2="effect1_dropShadow_36_79" result="shape"/>
<feColorMatrix in="SourceAlpha" type="matrix" values="0 0 0 0 0 0 0 0 0 0 0 0 0 0 0 0 0 0 127 0" result="hardAlpha"/>
<feOffset/>
<feGaussianBlur stdDeviation="6.4"/>
<feComposite in2="hardAlpha" operator="arithmetic" k2="-1" k3="1"/>
<feColorMatrix type="matrix" values="0 0 0 0 0 0 0 0 0 0 0 0 0 0 0 0 0 0 0.25 0"/>
<feBlend mode="normal" in2="shape" result="effect2_innerShadow_36_79"/>
</filter>
<filter id="filter2_d_36_79" x="86.06" y="50.4744" width="75.0048" height="72.3907" filterUnits="userSpaceOnUse" color-interpolation-filters="sRGB">
<feFlood flood-opacity="0" result="BackgroundImageFix"/>
<feColorMatrix in="SourceAlpha" type="matrix" values="0 0 0 0 0 0 0 0 0 0 0 0 0 0 0 0 0 0 127 0" result="hardAlpha"/>
<feOffset dy="3"/>
<feGaussianBlur stdDeviation="2.7"/>
<feComposite in2="hardAlpha" operator="out"/>
<feColorMatrix type="matrix" values="0 0 0 0 0 0 0 0 0 0 0 0 0 0 0 0 0 0 0.57 0"/>
<feBlend mode="normal" in2="BackgroundImageFix" result="effect1_dropShadow_36_79"/>
<feBlend mode="normal" in="SourceGraphic" in2="effect1_dropShadow_36_79" result="shape"/>
</filter>
<radialGradient id="paint0_radial_36_79" cx="0" cy="0" r="1" gradientUnits="userSpaceOnUse" gradientTransform="translate(128.75 123.045) rotate(-31.5922) scale(27.1681 35.3777)">
<stop stop-color="#8DFC0E"/>
<stop offset="1" stop-color="#549608"/>
</radialGradient>
<linearGradient id="paint1_linear_36_79" x1="157.179" y1="110.317" x2="129.618" y2="139.29" gradientUnits="userSpaceOnUse">
<stop stop-color="#8DFC0E"/>
<stop offset="1" stop-color="#549608"/>
</linearGradient>
<linearGradient id="paint2_linear_36_79" x1="139.5" y1="108.5" x2="144.5" y2="155" gradientUnits="userSpaceOnUse">
<stop stop-color="#8DFC0E"/>
<stop offset="1" stop-color="#0A1300"/>
</linearGradient>
<linearGradient id="paint3_linear_36_79" x1="124.523" y1="86.0952" x2="131.094" y2="78.5352" gradientUnits="userSpaceOnUse">
<stop stop-color="white"/>
<stop offset="0.914684" stop-color="#1E1E1E"/>
</linearGradient>
<radialGradient id="paint4_radial_36_79" cx="0" cy="0" r="1" gradientUnits="userSpaceOnUse" gradientTransform="translate(125.402 80.9233) rotate(129.875) scale(31.3025 42.3809)">
<stop stop-color="#D1D1D1"/>
<stop offset="1" stop-color="#6B6B6B"/>
</radialGradient>
<linearGradient id="paint5_linear_36_79" x1="105.434" y1="94.7618" x2="136.034" y2="67.3815" gradientUnits="userSpaceOnUse">
<stop stop-color="#6B6B6B"/>
<stop offset="1" stop-color="#D1D1D1"/>
</linearGradient>
<radialGradient id="paint6_radial_36_79" cx="0" cy="0" r="1" gradientUnits="userSpaceOnUse" gradientTransform="translate(125.402 80.9233) rotate(0.581201) scale(36.7341 31.1742)">
<stop stop-color="#F2F2F2"/>
<stop offset="1" stop-color="#5C5C5C"/>
</radialGradient>
<linearGradient id="paint7_linear_36_79" x1="144.642" y1="90.6972" x2="70.3125" y2="98.896" gradientUnits="userSpaceOnUse">
<stop stop-color="#3E3E3E"/>
<stop offset="1" stop-color="#A4A4A4"/>
</linearGradient>
<linearGradient id="paint8_linear_36_79" x1="148.722" y1="86.069" x2="155.957" y2="97.3152" gradientUnits="userSpaceOnUse">
<stop stop-color="#6B6B6B"/>
<stop offset="1" stop-color="#D1D1D1"/>
</linearGradient>
</defs>
</svg>
